# Blender 4.3.0
# www.blender.org
mtllib torus-flat.mtl
o Torus
v 0.000000 -1.350000 0.000000
v 0.205725 -1.283156 0.000000
v 0.332870 -1.108156 0.000000
v 0.332870 -0.891844 0.000000
v 0.205725 -0.716844 0.000000
v 0.000000 -0.650000 0.000000
v -0.205725 -0.716844 0.000000
v -0.332870 -0.891844 0.000000
v -0.332870 -1.108156 0.000000
v -0.205725 -1.283156 0.000000
v 0.000000 -1.283926 -0.417173
v 0.205725 -1.220354 -0.396517
v 0.332870 -1.053919 -0.342439
v 0.332870 -0.848194 -0.275595
v 0.205725 -0.681759 -0.221517
v 0.000000 -0.618187 -0.200861
v -0.205725 -0.681759 -0.221517
v -0.332870 -0.848194 -0.275595
v -0.332870 -1.053919 -0.342439
v -0.205725 -1.220354 -0.396517
v 0.000000 -1.092173 -0.793510
v 0.205725 -1.038095 -0.754220
v 0.332870 -0.896517 -0.651358
v 0.332870 -0.721517 -0.524213
v 0.205725 -0.579939 -0.421350
v 0.000000 -0.525861 -0.382060
v -0.205725 -0.579939 -0.421350
v -0.332870 -0.721517 -0.524213
v -0.332870 -0.896517 -0.651358
v -0.205725 -1.038095 -0.754220
v 0.000000 -0.793510 -1.092173
v 0.205725 -0.754220 -1.038095
v 0.332870 -0.651358 -0.896517
v 0.332870 -0.524213 -0.721517
v 0.205725 -0.421350 -0.579939
v 0.000000 -0.382060 -0.525861
v -0.205725 -0.421350 -0.579939
v -0.332870 -0.524213 -0.721517
v -0.332870 -0.651358 -0.896517
v -0.205725 -0.754220 -1.038095
v 0.000000 -0.417173 -1.283926
v 0.205725 -0.396517 -1.220354
v 0.332870 -0.342439 -1.053919
v 0.332870 -0.275595 -0.848194
v 0.205725 -0.221517 -0.681759
v 0.000000 -0.200861 -0.618187
v -0.205725 -0.221517 -0.681759
v -0.332870 -0.275595 -0.848194
v -0.332870 -0.342439 -1.053919
v -0.205725 -0.396517 -1.220354
v 0.000000 -0.000000 -1.350000
v 0.205725 -0.000000 -1.283156
v 0.332870 -0.000000 -1.108156
v 0.332870 -0.000000 -0.891844
v 0.205725 -0.000000 -0.716844
v 0.000000 -0.000000 -0.650000
v -0.205725 -0.000000 -0.716844
v -0.332870 -0.000000 -0.891844
v -0.332870 -0.000000 -1.108156
v -0.205725 -0.000000 -1.283156
v 0.000000 0.417173 -1.283926
v 0.205725 0.396517 -1.220354
v 0.332870 0.342439 -1.053919
v 0.332870 0.275595 -0.848194
v 0.205725 0.221517 -0.681759
v 0.000000 0.200861 -0.618187
v -0.205725 0.221517 -0.681759
v -0.332870 0.275595 -0.848194
v -0.332870 0.342439 -1.053919
v -0.205725 0.396517 -1.220354
v 0.000000 0.793510 -1.092173
v 0.205725 0.754220 -1.038095
v 0.332870 0.651358 -0.896517
v 0.332870 0.524213 -0.721517
v 0.205725 0.421351 -0.579939
v 0.000000 0.382060 -0.525861
v -0.205725 0.421351 -0.579939
v -0.332870 0.524213 -0.721517
v -0.332870 0.651358 -0.896517
v -0.205725 0.754220 -1.038095
v 0.000000 1.092173 -0.793510
v 0.205725 1.038095 -0.754220
v 0.332870 0.896517 -0.651357
v 0.332870 0.721517 -0.524213
v 0.205725 0.579939 -0.421350
v 0.000000 0.525861 -0.382060
v -0.205725 0.579939 -0.421350
v -0.332870 0.721517 -0.524213
v -0.332870 0.896517 -0.651357
v -0.205725 1.038095 -0.754220
v 0.000000 1.283926 -0.417173
v 0.205725 1.220354 -0.396517
v 0.332870 1.053919 -0.342439
v 0.332870 0.848194 -0.275595
v 0.205725 0.681759 -0.221517
v 0.000000 0.618187 -0.200861
v -0.205725 0.681759 -0.221517
v -0.332870 0.848194 -0.275595
v -0.332870 1.053919 -0.342439
v -0.205725 1.220354 -0.396517
v 0.000000 1.350000 -0.000000
v 0.205725 1.283156 -0.000000
v 0.332870 1.108156 -0.000000
v 0.332870 0.891844 -0.000000
v 0.205725 0.716844 -0.000000
v 0.000000 0.650000 -0.000000
v -0.205725 0.716844 -0.000000
v -0.332870 0.891844 -0.000000
v -0.332870 1.108156 -0.000000
v -0.205725 1.283156 -0.000000
v 0.000000 1.283926 0.417172
v 0.205725 1.220354 0.396516
v 0.332870 1.053919 0.342439
v 0.332870 0.848194 0.275595
v 0.205725 0.681759 0.221517
v 0.000000 0.618187 0.200861
v -0.205725 0.681759 0.221517
v -0.332870 0.848194 0.275595
v -0.332870 1.053919 0.342439
v -0.205725 1.220354 0.396516
v 0.000000 1.092173 0.793510
v 0.205725 1.038095 0.754220
v 0.332870 0.896517 0.651357
v 0.332870 0.721517 0.524213
v 0.205725 0.579939 0.421350
v 0.000000 0.525861 0.382060
v -0.205725 0.579939 0.421350
v -0.332870 0.721517 0.524213
v -0.332870 0.896517 0.651357
v -0.205725 1.038095 0.754220
v 0.000000 0.793510 1.092173
v 0.205725 0.754220 1.038095
v 0.332870 0.651358 0.896517
v 0.332870 0.524213 0.721517
v 0.205725 0.421351 0.579939
v 0.000000 0.382060 0.525861
v -0.205725 0.421351 0.579939
v -0.332870 0.524213 0.721517
v -0.332870 0.651358 0.896517
v -0.205725 0.754220 1.038095
v 0.000000 0.417173 1.283926
v 0.205725 0.396517 1.220354
v 0.332870 0.342439 1.053919
v 0.332870 0.275595 0.848194
v 0.205725 0.221517 0.681759
v 0.000000 0.200861 0.618187
v -0.205725 0.221517 0.681759
v -0.332870 0.275595 0.848194
v -0.332870 0.342439 1.053919
v -0.205725 0.396517 1.220354
v 0.000000 0.000000 1.350000
v 0.205725 0.000000 1.283156
v 0.332870 0.000000 1.108156
v 0.332870 0.000000 0.891844
v 0.205725 0.000000 0.716844
v 0.000000 0.000000 0.650000
v -0.205725 0.000000 0.716844
v -0.332870 0.000000 0.891844
v -0.332870 0.000000 1.108156
v -0.205725 0.000000 1.283156
v 0.000000 -0.417173 1.283926
v 0.205725 -0.396517 1.220354
v 0.332870 -0.342439 1.053919
v 0.332870 -0.275595 0.848194
v 0.205725 -0.221517 0.681759
v 0.000000 -0.200861 0.618187
v -0.205725 -0.221517 0.681759
v -0.332870 -0.275595 0.848194
v -0.332870 -0.342439 1.053919
v -0.205725 -0.396517 1.220354
v 0.000000 -0.793509 1.092173
v 0.205725 -0.754220 1.038095
v 0.332870 -0.651357 0.896517
v 0.332870 -0.524212 0.721517
v 0.205725 -0.421350 0.579939
v 0.000000 -0.382060 0.525861
v -0.205725 -0.421350 0.579939
v -0.332870 -0.524212 0.721517
v -0.332870 -0.651357 0.896517
v -0.205725 -0.754220 1.038095
v 0.000000 -1.092173 0.793511
v 0.205725 -1.038095 0.754221
v 0.332870 -0.896517 0.651358
v 0.332870 -0.721517 0.524213
v 0.205725 -0.579939 0.421351
v 0.000000 -0.525861 0.382061
v -0.205725 -0.579939 0.421351
v -0.332870 -0.721517 0.524213
v -0.332870 -0.896517 0.651358
v -0.205725 -1.038095 0.754221
v 0.000000 -1.283926 0.417173
v 0.205725 -1.220354 0.396517
v 0.332870 -1.053919 0.342439
v 0.332870 -0.848194 0.275595
v 0.205725 -0.681759 0.221517
v 0.000000 -0.618187 0.200861
v -0.205725 -0.681759 0.221517
v -0.332870 -0.848194 0.275595
v -0.332870 -1.053919 0.342439
v -0.205725 -1.220354 0.396517
vn 0.3056 -0.9404 -0.1490
vn 0.8055 -0.5853 -0.0927
vn 1.0000 -0.0000 -0.0000
vn 0.8055 0.5853 0.0927
vn 0.3056 0.9404 0.1490
vn -0.3056 0.9404 0.1490
vn -0.8055 0.5853 0.0927
vn -1.0000 -0.0000 -0.0000
vn -0.8055 -0.5853 -0.0927
vn -0.3056 -0.9404 -0.1490
vn 0.3056 -0.8484 -0.4323
vn 0.8055 -0.5280 -0.2690
vn 0.8055 0.5280 0.2690
vn 0.3056 0.8484 0.4323
vn -0.3056 0.8484 0.4323
vn -0.8055 0.5280 0.2690
vn -0.8055 -0.5280 -0.2690
vn -0.3056 -0.8484 -0.4323
vn 0.3056 -0.6733 -0.6733
vn 0.8055 -0.4190 -0.4190
vn 0.8055 0.4190 0.4190
vn 0.3056 0.6733 0.6733
vn -0.3056 0.6733 0.6733
vn -0.8055 0.4190 0.4190
vn -0.8055 -0.4190 -0.4190
vn -0.3056 -0.6733 -0.6733
vn 0.3056 -0.4323 -0.8484
vn 0.8055 -0.2690 -0.5280
vn 0.8055 0.2690 0.5280
vn 0.3056 0.4323 0.8484
vn -0.3056 0.4323 0.8484
vn -0.8055 0.2690 0.5280
vn -0.8055 -0.2690 -0.5280
vn -0.3056 -0.4323 -0.8484
vn 0.3056 -0.1490 -0.9404
vn 0.8055 -0.0927 -0.5853
vn 0.8055 0.0927 0.5853
vn 0.3056 0.1490 0.9404
vn -0.3056 0.1490 0.9404
vn -0.8055 0.0927 0.5853
vn -0.8055 -0.0927 -0.5853
vn -0.3056 -0.1490 -0.9404
vn 0.3056 0.1490 -0.9404
vn 0.8055 0.0927 -0.5853
vn 0.8055 -0.0927 0.5853
vn 0.3056 -0.1490 0.9404
vn -0.3056 -0.1490 0.9404
vn -0.8055 -0.0927 0.5853
vn -0.8055 0.0927 -0.5853
vn -0.3056 0.1490 -0.9404
vn 0.3056 0.4323 -0.8484
vn 0.8055 0.2690 -0.5280
vn 0.8055 -0.2690 0.5280
vn 0.3056 -0.4323 0.8484
vn -0.3056 -0.4323 0.8484
vn -0.8055 -0.2690 0.5280
vn -0.8055 0.2690 -0.5280
vn -0.3056 0.4323 -0.8484
vn 0.3056 0.6733 -0.6733
vn 0.8055 0.4190 -0.4190
vn 0.8055 -0.4190 0.4190
vn 0.3056 -0.6733 0.6733
vn -0.3056 -0.6733 0.6733
vn -0.8055 -0.4190 0.4190
vn -0.8055 0.4190 -0.4190
vn -0.3056 0.6733 -0.6733
vn 0.3056 0.8484 -0.4323
vn 0.8055 0.5280 -0.2690
vn 0.8055 -0.5280 0.2690
vn 0.3056 -0.8484 0.4323
vn -0.3056 -0.8484 0.4323
vn -0.8055 -0.5280 0.2690
vn -0.8055 0.5280 -0.2690
vn -0.3056 0.8484 -0.4323
vn 0.3056 0.9404 -0.1490
vn 0.8055 0.5853 -0.0927
vn 0.8055 -0.5853 0.0927
vn 0.3056 -0.9404 0.1490
vn -0.3056 -0.9404 0.1490
vn -0.8055 -0.5853 0.0927
vn -0.8055 0.5853 -0.0927
vn -0.3056 0.9404 -0.1490
s 1
usemtl torus
f 11//1 2//1 1//1
f 12//2 3//2 2//2
f 3//3 14//3 4//3
f 14//4 5//4 4//4
f 15//5 6//5 5//5
f 16//6 7//6 6//6
f 7//7 18//7 8//7
f 18//8 9//8 8//8
f 19//9 10//9 9//9
f 20//10 1//10 10//10
f 21//11 12//11 11//11
f 22//12 13//12 12//12
f 23//3 14//3 13//3
f 14//13 25//13 15//13
f 15//14 26//14 16//14
f 26//15 17//15 16//15
f 27//16 18//16 17//16
f 28//8 19//8 18//8
f 29//17 20//17 19//17
f 20//18 21//18 11//18
f 31//19 22//19 21//19
f 32//20 23//20 22//20
f 33//3 24//3 23//3
f 24//21 35//21 25//21
f 35//22 26//22 25//22
f 26//23 37//23 27//23
f 37//24 28//24 27//24
f 38//8 29//8 28//8
f 39//25 30//25 29//25
f 40//26 21//26 30//26
f 31//27 42//27 32//27
f 42//28 33//28 32//28
f 33//3 44//3 34//3
f 34//29 45//29 35//29
f 45//30 36//30 35//30
f 46//31 37//31 36//31
f 47//32 38//32 37//32
f 48//8 39//8 38//8
f 49//33 40//33 39//33
f 50//34 31//34 40//34
f 51//35 42//35 41//35
f 52//36 43//36 42//36
f 53//3 44//3 43//3
f 54//37 45//37 44//37
f 55//38 46//38 45//38
f 56//39 47//39 46//39
f 47//40 58//40 48//40
f 58//8 49//8 48//8
f 59//41 50//41 49//41
f 60//42 41//42 50//42
f 61//43 52//43 51//43
f 62//44 53//44 52//44
f 53//3 64//3 54//3
f 64//45 55//45 54//45
f 65//46 56//46 55//46
f 56//47 67//47 57//47
f 57//48 68//48 58//48
f 68//8 59//8 58//8
f 69//49 60//49 59//49
f 60//50 61//50 51//50
f 71//51 62//51 61//51
f 72//52 63//52 62//52
f 73//3 64//3 63//3
f 74//53 65//53 64//53
f 65//54 76//54 66//54
f 76//55 67//55 66//55
f 77//56 68//56 67//56
f 68//8 79//8 69//8
f 79//57 70//57 69//57
f 70//58 71//58 61//58
f 81//59 72//59 71//59
f 82//60 73//60 72//60
f 83//3 74//3 73//3
f 84//61 75//61 74//61
f 85//62 76//62 75//62
f 86//63 77//63 76//63
f 77//64 88//64 78//64
f 88//8 79//8 78//8
f 89//65 80//65 79//65
f 90//66 71//66 80//66
f 91//67 82//67 81//67
f 92//68 83//68 82//68
f 93//3 84//3 83//3
f 94//69 85//69 84//69
f 95//70 86//70 85//70
f 96//71 87//71 86//71
f 97//72 88//72 87//72
f 98//8 89//8 88//8
f 89//73 100//73 90//73
f 100//74 81//74 90//74
f 101//75 92//75 91//75
f 92//76 103//76 93//76
f 93//3 104//3 94//3
f 104//77 95//77 94//77
f 105//78 96//78 95//78
f 106//79 97//79 96//79
f 107//80 98//80 97//80
f 108//8 99//8 98//8
f 109//81 100//81 99//81
f 110//82 91//82 100//82
f 101//5 112//5 102//5
f 112//4 103//4 102//4
f 113//3 104//3 103//3
f 114//2 105//2 104//2
f 115//1 106//1 105//1
f 116//10 107//10 106//10
f 117//9 108//9 107//9
f 108//8 119//8 109//8
f 119//7 110//7 109//7
f 120//6 101//6 110//6
f 121//14 112//14 111//14
f 112//13 123//13 113//13
f 113//3 124//3 114//3
f 124//12 115//12 114//12
f 125//11 116//11 115//11
f 126//18 117//18 116//18
f 127//17 118//17 117//17
f 128//8 119//8 118//8
f 129//16 120//16 119//16
f 130//15 111//15 120//15
f 131//22 122//22 121//22
f 132//21 123//21 122//21
f 133//3 124//3 123//3
f 124//20 135//20 125//20
f 135//19 126//19 125//19
f 136//26 127//26 126//26
f 137//25 128//25 127//25
f 128//8 139//8 129//8
f 139//24 130//24 129//24
f 140//23 121//23 130//23
f 131//30 142//30 132//30
f 142//29 133//29 132//29
f 133//3 144//3 134//3
f 144//28 135//28 134//28
f 145//27 136//27 135//27
f 136//34 147//34 137//34
f 147//33 138//33 137//33
f 148//8 139//8 138//8
f 149//32 140//32 139//32
f 150//31 131//31 140//31
f 151//38 142//38 141//38
f 152//37 143//37 142//37
f 153//3 144//3 143//3
f 154//36 145//36 144//36
f 145//35 156//35 146//35
f 156//42 147//42 146//42
f 157//41 148//41 147//41
f 158//8 149//8 148//8
f 159//40 150//40 149//40
f 150//39 151//39 141//39
f 161//46 152//46 151//46
f 162//45 153//45 152//45
f 163//3 154//3 153//3
f 154//44 165//44 155//44
f 165//43 156//43 155//43
f 166//50 157//50 156//50
f 167//49 158//49 157//49
f 168//8 159//8 158//8
f 169//48 160//48 159//48
f 170//47 151//47 160//47
f 171//54 162//54 161//54
f 172//53 163//53 162//53
f 173//3 164//3 163//3
f 174//52 165//52 164//52
f 175//51 166//51 165//51
f 176//58 167//58 166//58
f 177//57 168//57 167//57
f 168//8 179//8 169//8
f 179//56 170//56 169//56
f 170//55 171//55 161//55
f 181//62 172//62 171//62
f 182//61 173//61 172//61
f 183//3 174//3 173//3
f 184//60 175//60 174//60
f 185//59 176//59 175//59
f 186//66 177//66 176//66
f 187//65 178//65 177//65
f 188//8 179//8 178//8
f 179//64 190//64 180//64
f 190//63 171//63 180//63
f 191//70 182//70 181//70
f 192//69 183//69 182//69
f 193//3 184//3 183//3
f 194//68 185//68 184//68
f 185//67 196//67 186//67
f 196//74 187//74 186//74
f 197//73 188//73 187//73
f 188//8 199//8 189//8
f 189//72 200//72 190//72
f 200//71 181//71 190//71
f 1//78 192//78 191//78
f 192//77 3//77 193//77
f 3//3 194//3 193//3
f 4//76 195//76 194//76
f 195//75 6//75 196//75
f 6//82 197//82 196//82
f 7//81 198//81 197//81
f 198//8 9//8 199//8
f 199//80 10//80 200//80
f 200//79 1//79 191//79
f 11//1 12//1 2//1
f 12//2 13//2 3//2
f 3//3 13//3 14//3
f 14//4 15//4 5//4
f 15//5 16//5 6//5
f 16//6 17//6 7//6
f 7//7 17//7 18//7
f 18//8 19//8 9//8
f 19//9 20//9 10//9
f 20//10 11//10 1//10
f 21//11 22//11 12//11
f 22//12 23//12 13//12
f 23//3 24//3 14//3
f 14//13 24//13 25//13
f 15//14 25//14 26//14
f 26//15 27//15 17//15
f 27//16 28//16 18//16
f 28//8 29//8 19//8
f 29//17 30//17 20//17
f 20//18 30//18 21//18
f 31//19 32//19 22//19
f 32//20 33//20 23//20
f 33//3 34//3 24//3
f 24//21 34//21 35//21
f 35//22 36//22 26//22
f 26//23 36//23 37//23
f 37//24 38//24 28//24
f 38//8 39//8 29//8
f 39//25 40//25 30//25
f 40//26 31//26 21//26
f 31//27 41//27 42//27
f 42//28 43//28 33//28
f 33//3 43//3 44//3
f 34//29 44//29 45//29
f 45//30 46//30 36//30
f 46//31 47//31 37//31
f 47//32 48//32 38//32
f 48//8 49//8 39//8
f 49//33 50//33 40//33
f 50//34 41//34 31//34
f 51//35 52//35 42//35
f 52//36 53//36 43//36
f 53//3 54//3 44//3
f 54//37 55//37 45//37
f 55//38 56//38 46//38
f 56//39 57//39 47//39
f 47//40 57//40 58//40
f 58//8 59//8 49//8
f 59//41 60//41 50//41
f 60//42 51//42 41//42
f 61//43 62//43 52//43
f 62//44 63//44 53//44
f 53//3 63//3 64//3
f 64//45 65//45 55//45
f 65//46 66//46 56//46
f 56//47 66//47 67//47
f 57//48 67//48 68//48
f 68//8 69//8 59//8
f 69//49 70//49 60//49
f 60//50 70//50 61//50
f 71//51 72//51 62//51
f 72//52 73//52 63//52
f 73//3 74//3 64//3
f 74//53 75//53 65//53
f 65//54 75//54 76//54
f 76//55 77//55 67//55
f 77//56 78//56 68//56
f 68//8 78//8 79//8
f 79//57 80//57 70//57
f 70//58 80//58 71//58
f 81//59 82//59 72//59
f 82//60 83//60 73//60
f 83//3 84//3 74//3
f 84//61 85//61 75//61
f 85//62 86//62 76//62
f 86//63 87//63 77//63
f 77//64 87//64 88//64
f 88//8 89//8 79//8
f 89//65 90//65 80//65
f 90//66 81//66 71//66
f 91//67 92//67 82//67
f 92//68 93//68 83//68
f 93//3 94//3 84//3
f 94//69 95//69 85//69
f 95//70 96//70 86//70
f 96//71 97//71 87//71
f 97//72 98//72 88//72
f 98//8 99//8 89//8
f 89//73 99//73 100//73
f 100//74 91//74 81//74
f 101//75 102//75 92//75
f 92//76 102//76 103//76
f 93//3 103//3 104//3
f 104//77 105//77 95//77
f 105//78 106//78 96//78
f 106//79 107//79 97//79
f 107//80 108//80 98//80
f 108//8 109//8 99//8
f 109//81 110//81 100//81
f 110//82 101//82 91//82
f 101//5 111//5 112//5
f 112//4 113//4 103//4
f 113//3 114//3 104//3
f 114//2 115//2 105//2
f 115//1 116//1 106//1
f 116//10 117//10 107//10
f 117//9 118//9 108//9
f 108//8 118//8 119//8
f 119//7 120//7 110//7
f 120//6 111//6 101//6
f 121//14 122//14 112//14
f 112//13 122//13 123//13
f 113//3 123//3 124//3
f 124//12 125//12 115//12
f 125//11 126//11 116//11
f 126//18 127//18 117//18
f 127//17 128//17 118//17
f 128//8 129//8 119//8
f 129//16 130//16 120//16
f 130//15 121//15 111//15
f 131//22 132//22 122//22
f 132//21 133//21 123//21
f 133//3 134//3 124//3
f 124//20 134//20 135//20
f 135//19 136//19 126//19
f 136//26 137//26 127//26
f 137//25 138//25 128//25
f 128//8 138//8 139//8
f 139//24 140//24 130//24
f 140//23 131//23 121//23
f 131//30 141//30 142//30
f 142//29 143//29 133//29
f 133//3 143//3 144//3
f 144//28 145//28 135//28
f 145//27 146//27 136//27
f 136//34 146//34 147//34
f 147//33 148//33 138//33
f 148//8 149//8 139//8
f 149//32 150//32 140//32
f 150//31 141//31 131//31
f 151//38 152//38 142//38
f 152//37 153//37 143//37
f 153//3 154//3 144//3
f 154//36 155//36 145//36
f 145//35 155//35 156//35
f 156//42 157//42 147//42
f 157//41 158//41 148//41
f 158//8 159//8 149//8
f 159//40 160//40 150//40
f 150//39 160//39 151//39
f 161//46 162//46 152//46
f 162//45 163//45 153//45
f 163//3 164//3 154//3
f 154//44 164//44 165//44
f 165//43 166//43 156//43
f 166//50 167//50 157//50
f 167//49 168//49 158//49
f 168//8 169//8 159//8
f 169//48 170//48 160//48
f 170//47 161//47 151//47
f 171//54 172//54 162//54
f 172//53 173//53 163//53
f 173//3 174//3 164//3
f 174//52 175//52 165//52
f 175//51 176//51 166//51
f 176//58 177//58 167//58
f 177//57 178//57 168//57
f 168//8 178//8 179//8
f 179//56 180//56 170//56
f 170//55 180//55 171//55
f 181//62 182//62 172//62
f 182//61 183//61 173//61
f 183//3 184//3 174//3
f 184//60 185//60 175//60
f 185//59 186//59 176//59
f 186//66 187//66 177//66
f 187//65 188//65 178//65
f 188//8 189//8 179//8
f 179//64 189//64 190//64
f 190//63 181//63 171//63
f 191//70 192//70 182//70
f 192//69 193//69 183//69
f 193//3 194//3 184//3
f 194//68 195//68 185//68
f 185//67 195//67 196//67
f 196//74 197//74 187//74
f 197//73 198//73 188//73
f 188//8 198//8 199//8
f 189//72 199//72 200//72
f 200//71 191//71 181//71
f 1//78 2//78 192//78
f 192//77 2//77 3//77
f 3//3 4//3 194//3
f 4//76 5//76 195//76
f 195//75 5//75 6//75
f 6//82 7//82 197//82
f 7//81 8//81 198//81
f 198//8 8//8 9//8
f 199//80 9//80 10//80
f 200//79 10//79 1//79
