# Blender 4.3.0
# www.blender.org
mtllib torus-smooth.mtl
o Torus
v 0.000000 -1.350000 0.000000
v 0.205725 -1.283156 0.000000
v 0.332870 -1.108156 0.000000
v 0.332870 -0.891844 0.000000
v 0.205725 -0.716844 0.000000
v 0.000000 -0.650000 0.000000
v -0.205725 -0.716844 0.000000
v -0.332870 -0.891844 0.000000
v -0.332870 -1.108156 0.000000
v -0.205725 -1.283156 0.000000
v 0.000000 -1.283926 -0.417173
v 0.205725 -1.220354 -0.396517
v 0.332870 -1.053919 -0.342439
v 0.332870 -0.848194 -0.275595
v 0.205725 -0.681759 -0.221517
v 0.000000 -0.618187 -0.200861
v -0.205725 -0.681759 -0.221517
v -0.332870 -0.848194 -0.275595
v -0.332870 -1.053919 -0.342439
v -0.205725 -1.220354 -0.396517
v 0.000000 -1.092173 -0.793510
v 0.205725 -1.038095 -0.754220
v 0.332870 -0.896517 -0.651358
v 0.332870 -0.721517 -0.524213
v 0.205725 -0.579939 -0.421350
v 0.000000 -0.525861 -0.382060
v -0.205725 -0.579939 -0.421350
v -0.332870 -0.721517 -0.524213
v -0.332870 -0.896517 -0.651358
v -0.205725 -1.038095 -0.754220
v 0.000000 -0.793510 -1.092173
v 0.205725 -0.754220 -1.038095
v 0.332870 -0.651358 -0.896517
v 0.332870 -0.524213 -0.721517
v 0.205725 -0.421350 -0.579939
v 0.000000 -0.382060 -0.525861
v -0.205725 -0.421350 -0.579939
v -0.332870 -0.524213 -0.721517
v -0.332870 -0.651358 -0.896517
v -0.205725 -0.754220 -1.038095
v 0.000000 -0.417173 -1.283926
v 0.205725 -0.396517 -1.220354
v 0.332870 -0.342439 -1.053919
v 0.332870 -0.275595 -0.848194
v 0.205725 -0.221517 -0.681759
v 0.000000 -0.200861 -0.618187
v -0.205725 -0.221517 -0.681759
v -0.332870 -0.275595 -0.848194
v -0.332870 -0.342439 -1.053919
v -0.205725 -0.396517 -1.220354
v 0.000000 -0.000000 -1.350000
v 0.205725 -0.000000 -1.283156
v 0.332870 -0.000000 -1.108156
v 0.332870 -0.000000 -0.891844
v 0.205725 -0.000000 -0.716844
v 0.000000 -0.000000 -0.650000
v -0.205725 -0.000000 -0.716844
v -0.332870 -0.000000 -0.891844
v -0.332870 -0.000000 -1.108156
v -0.205725 -0.000000 -1.283156
v 0.000000 0.417173 -1.283926
v 0.205725 0.396517 -1.220354
v 0.332870 0.342439 -1.053919
v 0.332870 0.275595 -0.848194
v 0.205725 0.221517 -0.681759
v 0.000000 0.200861 -0.618187
v -0.205725 0.221517 -0.681759
v -0.332870 0.275595 -0.848194
v -0.332870 0.342439 -1.053919
v -0.205725 0.396517 -1.220354
v 0.000000 0.793510 -1.092173
v 0.205725 0.754220 -1.038095
v 0.332870 0.651358 -0.896517
v 0.332870 0.524213 -0.721517
v 0.205725 0.421351 -0.579939
v 0.000000 0.382060 -0.525861
v -0.205725 0.421351 -0.579939
v -0.332870 0.524213 -0.721517
v -0.332870 0.651358 -0.896517
v -0.205725 0.754220 -1.038095
v 0.000000 1.092173 -0.793510
v 0.205725 1.038095 -0.754220
v 0.332870 0.896517 -0.651357
v 0.332870 0.721517 -0.524213
v 0.205725 0.579939 -0.421350
v 0.000000 0.525861 -0.382060
v -0.205725 0.579939 -0.421350
v -0.332870 0.721517 -0.524213
v -0.332870 0.896517 -0.651357
v -0.205725 1.038095 -0.754220
v 0.000000 1.283926 -0.417173
v 0.205725 1.220354 -0.396517
v 0.332870 1.053919 -0.342439
v 0.332870 0.848194 -0.275595
v 0.205725 0.681759 -0.221517
v 0.000000 0.618187 -0.200861
v -0.205725 0.681759 -0.221517
v -0.332870 0.848194 -0.275595
v -0.332870 1.053919 -0.342439
v -0.205725 1.220354 -0.396517
v 0.000000 1.350000 -0.000000
v 0.205725 1.283156 -0.000000
v 0.332870 1.108156 -0.000000
v 0.332870 0.891844 -0.000000
v 0.205725 0.716844 -0.000000
v 0.000000 0.650000 -0.000000
v -0.205725 0.716844 -0.000000
v -0.332870 0.891844 -0.000000
v -0.332870 1.108156 -0.000000
v -0.205725 1.283156 -0.000000
v 0.000000 1.283926 0.417172
v 0.205725 1.220354 0.396516
v 0.332870 1.053919 0.342439
v 0.332870 0.848194 0.275595
v 0.205725 0.681759 0.221517
v 0.000000 0.618187 0.200861
v -0.205725 0.681759 0.221517
v -0.332870 0.848194 0.275595
v -0.332870 1.053919 0.342439
v -0.205725 1.220354 0.396516
v 0.000000 1.092173 0.793510
v 0.205725 1.038095 0.754220
v 0.332870 0.896517 0.651357
v 0.332870 0.721517 0.524213
v 0.205725 0.579939 0.421350
v 0.000000 0.525861 0.382060
v -0.205725 0.579939 0.421350
v -0.332870 0.721517 0.524213
v -0.332870 0.896517 0.651357
v -0.205725 1.038095 0.754220
v 0.000000 0.793510 1.092173
v 0.205725 0.754220 1.038095
v 0.332870 0.651358 0.896517
v 0.332870 0.524213 0.721517
v 0.205725 0.421351 0.579939
v 0.000000 0.382060 0.525861
v -0.205725 0.421351 0.579939
v -0.332870 0.524213 0.721517
v -0.332870 0.651358 0.896517
v -0.205725 0.754220 1.038095
v 0.000000 0.417173 1.283926
v 0.205725 0.396517 1.220354
v 0.332870 0.342439 1.053919
v 0.332870 0.275595 0.848194
v 0.205725 0.221517 0.681759
v 0.000000 0.200861 0.618187
v -0.205725 0.221517 0.681759
v -0.332870 0.275595 0.848194
v -0.332870 0.342439 1.053919
v -0.205725 0.396517 1.220354
v 0.000000 0.000000 1.350000
v 0.205725 0.000000 1.283156
v 0.332870 0.000000 1.108156
v 0.332870 0.000000 0.891844
v 0.205725 0.000000 0.716844
v 0.000000 0.000000 0.650000
v -0.205725 0.000000 0.716844
v -0.332870 0.000000 0.891844
v -0.332870 0.000000 1.108156
v -0.205725 0.000000 1.283156
v 0.000000 -0.417173 1.283926
v 0.205725 -0.396517 1.220354
v 0.332870 -0.342439 1.053919
v 0.332870 -0.275595 0.848194
v 0.205725 -0.221517 0.681759
v 0.000000 -0.200861 0.618187
v -0.205725 -0.221517 0.681759
v -0.332870 -0.275595 0.848194
v -0.332870 -0.342439 1.053919
v -0.205725 -0.396517 1.220354
v 0.000000 -0.793509 1.092173
v 0.205725 -0.754220 1.038095
v 0.332870 -0.651357 0.896517
v 0.332870 -0.524212 0.721517
v 0.205725 -0.421350 0.579939
v 0.000000 -0.382060 0.525861
v -0.205725 -0.421350 0.579939
v -0.332870 -0.524212 0.721517
v -0.332870 -0.651357 0.896517
v -0.205725 -0.754220 1.038095
v 0.000000 -1.092173 0.793511
v 0.205725 -1.038095 0.754221
v 0.332870 -0.896517 0.651358
v 0.332870 -0.721517 0.524213
v 0.205725 -0.579939 0.421351
v 0.000000 -0.525861 0.382061
v -0.205725 -0.579939 0.421351
v -0.332870 -0.721517 0.524213
v -0.332870 -0.896517 0.651358
v -0.205725 -1.038095 0.754221
v 0.000000 -1.283926 0.417173
v 0.205725 -1.220354 0.396517
v 0.332870 -1.053919 0.342439
v 0.332870 -0.848194 0.275595
v 0.205725 -0.681759 0.221517
v 0.000000 -0.618187 0.200861
v -0.205725 -0.681759 0.221517
v -0.332870 -0.848194 0.275595
v -0.332870 -1.053919 0.342439
v -0.205725 -1.220354 0.396517
vn -0.0000 -0.9511 -0.3090
vn 0.5736 -0.8192 -0.0000
vn -0.0000 -1.0000 -0.0000
vn 0.5736 -0.7791 -0.2531
vn 0.9417 -0.3364 -0.0000
vn 0.9598 0.2668 0.0867
vn 0.9598 0.2806 -0.0000
vn 0.6029 0.7978 -0.0000
vn 0.6029 0.7588 0.2465
vn -0.0000 1.0000 -0.0000
vn -0.0000 0.9511 0.3090
vn -0.6029 0.7978 -0.0000
vn -0.9598 0.2668 0.0867
vn -0.9598 0.2806 -0.0000
vn -0.9417 -0.3364 -0.0000
vn -0.9417 -0.3199 -0.1040
vn -0.5736 -0.8192 -0.0000
vn -0.5736 -0.7791 -0.2531
vn -0.0000 -0.8090 -0.5878
vn 0.5736 -0.6627 -0.4815
vn 0.9417 -0.3199 -0.1040
vn 0.9417 -0.2722 -0.1977
vn 0.6029 0.6455 0.4689
vn -0.0000 0.8090 0.5878
vn -0.6029 0.7588 0.2465
vn -0.6029 0.6455 0.4689
vn -0.9598 0.2270 0.1649
vn -0.9417 -0.2722 -0.1977
vn -0.0000 -0.5878 -0.8090
vn 0.5736 -0.4815 -0.6627
vn 0.9417 -0.1977 -0.2722
vn 0.9598 0.2270 0.1649
vn 0.6029 0.4690 0.6455
vn -0.6029 0.4690 0.6455
vn -0.9598 0.1649 0.2270
vn -0.9417 -0.1977 -0.2722
vn -0.5736 -0.6627 -0.4815
vn -0.5736 -0.4815 -0.6627
vn 0.5736 -0.2531 -0.7791
vn 0.9598 0.0867 0.2668
vn 0.9598 0.1649 0.2270
vn 0.6029 0.2465 0.7588
vn -0.0000 0.5878 0.8090
vn -0.0000 0.3090 0.9511
vn -0.6029 0.2465 0.7588
vn -0.9598 0.0867 0.2668
vn -0.9417 -0.1040 -0.3199
vn -0.5736 -0.2531 -0.7791
vn -0.0000 -0.0000 -1.0000
vn -0.0000 -0.3090 -0.9511
vn 0.5736 -0.0000 -0.8192
vn 0.9417 -0.1040 -0.3199
vn 0.9417 -0.0000 -0.3364
vn 0.9598 -0.0000 0.2806
vn 0.6029 -0.0000 0.7978
vn -0.0000 -0.0000 1.0000
vn -0.9598 -0.0000 0.2806
vn -0.9417 -0.0000 -0.3364
vn -0.5736 -0.0000 -0.8192
vn -0.0000 0.3090 -0.9511
vn 0.5736 0.2531 -0.7791
vn 0.9598 -0.0867 0.2668
vn 0.6029 -0.2465 0.7588
vn -0.6029 -0.2465 0.7588
vn -0.6029 -0.0000 0.7978
vn -0.9598 -0.0867 0.2668
vn -0.9417 0.1040 -0.3199
vn -0.0000 0.5878 -0.8090
vn 0.5736 0.4815 -0.6627
vn 0.9417 0.1040 -0.3199
vn 0.9417 0.1977 -0.2722
vn 0.9598 -0.1649 0.2270
vn -0.0000 -0.5878 0.8090
vn -0.0000 -0.3090 0.9511
vn -0.6029 -0.4690 0.6455
vn -0.9417 0.1977 -0.2722
vn -0.5736 0.2531 -0.7791
vn -0.0000 0.8090 -0.5878
vn 0.5736 0.6627 -0.4815
vn 0.9417 0.2722 -0.1977
vn 0.9598 -0.2270 0.1649
vn 0.6029 -0.4690 0.6455
vn 0.6029 -0.6455 0.4690
vn -0.0000 -0.8090 0.5878
vn -0.9598 -0.2270 0.1649
vn -0.9598 -0.1649 0.2270
vn -0.9417 0.2722 -0.1977
vn -0.5736 0.4815 -0.6627
vn -0.5736 0.6627 -0.4815
vn -0.0000 0.9511 -0.3090
vn 0.5736 0.7791 -0.2531
vn 0.9417 0.3199 -0.1040
vn 0.9598 -0.2668 0.0867
vn 0.6029 -0.7588 0.2465
vn -0.0000 -0.9511 0.3090
vn -0.6029 -0.6455 0.4690
vn -0.6029 -0.7588 0.2465
vn -0.9598 -0.2668 0.0867
vn -0.5736 0.7791 -0.2531
vn 0.9417 0.3364 -0.0000
vn 0.9598 -0.2806 -0.0000
vn 0.6029 -0.7978 -0.0000
vn -0.6029 -0.7978 -0.0000
vn -0.9598 -0.2806 -0.0000
vn -0.9417 0.3199 -0.1040
vn -0.9417 0.3364 -0.0000
vn -0.5736 0.8192 -0.0000
vn 0.5736 0.7791 0.2531
vn 0.5736 0.8192 -0.0000
vn 0.9417 0.3199 0.1040
vn 0.9598 -0.2668 -0.0867
vn 0.6029 -0.7588 -0.2465
vn -0.6029 -0.7588 -0.2465
vn -0.9417 0.3199 0.1040
vn -0.5736 0.7791 0.2531
vn 0.9417 0.2722 0.1977
vn 0.9598 -0.2270 -0.1649
vn 0.6029 -0.6455 -0.4690
vn -0.6029 -0.6455 -0.4690
vn -0.9598 -0.2668 -0.0867
vn -0.9598 -0.2270 -0.1649
vn -0.9417 0.2722 0.1977
vn -0.5736 0.6627 0.4815
vn 0.5736 0.6627 0.4815
vn 0.5736 0.4815 0.6627
vn 0.9417 0.1977 0.2722
vn 0.6029 -0.4690 -0.6455
vn -0.6029 -0.4690 -0.6455
vn -0.9417 0.1977 0.2722
vn -0.5736 0.4815 0.6627
vn 0.5736 0.2531 0.7791
vn 0.9598 -0.0867 -0.2668
vn 0.9598 -0.1649 -0.2270
vn 0.6029 -0.2465 -0.7588
vn -0.6029 -0.2465 -0.7588
vn -0.9598 -0.1649 -0.2270
vn -0.9598 -0.0867 -0.2668
vn -0.9417 0.1040 0.3199
vn -0.5736 0.2531 0.7791
vn 0.5736 -0.0000 0.8192
vn 0.9417 0.1040 0.3199
vn 0.9417 -0.0000 0.3364
vn 0.9598 -0.0000 -0.2806
vn -0.6029 -0.0000 -0.7978
vn -0.9598 -0.0000 -0.2806
vn -0.9417 -0.0000 0.3364
vn 0.5736 -0.2531 0.7791
vn 0.9417 -0.1040 0.3199
vn 0.6029 0.2465 -0.7588
vn 0.6029 -0.0000 -0.7978
vn -0.6029 0.2465 -0.7588
vn -0.9598 0.0867 -0.2668
vn -0.9417 -0.1040 0.3199
vn -0.5736 -0.0000 0.8192
vn -0.5736 -0.2531 0.7791
vn 0.5736 -0.4815 0.6627
vn 0.9417 -0.1977 0.2722
vn 0.9598 0.0867 -0.2668
vn 0.9598 0.1649 -0.2270
vn 0.6029 0.4690 -0.6455
vn -0.6029 0.4690 -0.6455
vn -0.9417 -0.1977 0.2722
vn 0.5736 -0.6627 0.4815
vn 0.9417 -0.2722 0.1977
vn 0.9598 0.2270 -0.1649
vn 0.6029 0.6455 -0.4690
vn -0.6029 0.6455 -0.4690
vn -0.9598 0.1649 -0.2270
vn -0.9598 0.2270 -0.1649
vn -0.5736 -0.6627 0.4815
vn -0.5736 -0.4815 0.6627
vn 0.5736 -0.7791 0.2531
vn 0.9417 -0.3199 0.1040
vn 0.9598 0.2668 -0.0867
vn -0.6029 0.7588 -0.2465
vn -0.9417 -0.3199 0.1040
vn -0.9417 -0.2722 0.1977
vn -0.5736 -0.7791 0.2531
vn 0.6029 0.7588 -0.2465
vn -0.9598 0.2668 -0.0867
s 1
g Torus_torus
usemtl torus
f 11//1 2//2 1//3
f 12//4 3//5 2//2
f 3//5 14//6 4//7
f 14//6 5//8 4//7
f 15//9 6//10 5//8
f 16//11 7//12 6//10
f 7//12 18//13 8//14
f 18//13 9//15 8//14
f 19//16 10//17 9//15
f 20//18 1//3 10//17
f 21//19 12//4 11//1
f 22//20 13//21 12//4
f 23//22 14//6 13//21
f 14//6 25//23 15//9
f 15//9 26//24 16//11
f 26//24 17//25 16//11
f 27//26 18//13 17//25
f 28//27 19//16 18//13
f 29//28 20//18 19//16
f 20//18 21//19 11//1
f 31//29 22//20 21//19
f 32//30 23//22 22//20
f 33//31 24//32 23//22
f 24//32 35//33 25//23
f 35//33 26//24 25//23
f 26//24 37//34 27//26
f 37//34 28//27 27//26
f 38//35 29//28 28//27
f 39//36 30//37 29//28
f 40//38 21//19 30//37
f 31//29 42//39 32//30
f 42//39 33//31 32//30
f 33//31 44//40 34//41
f 34//41 45//42 35//33
f 45//42 36//43 35//33
f 46//44 37//34 36//43
f 47//45 38//35 37//34
f 48//46 39//36 38//35
f 49//47 40//38 39//36
f 50//48 31//29 40//38
f 51//49 42//39 41//50
f 52//51 43//52 42//39
f 53//53 44//40 43//52
f 54//54 45//42 44//40
f 55//55 46//44 45//42
f 56//56 47//45 46//44
f 47//45 58//57 48//46
f 58//57 49//47 48//46
f 59//58 50//48 49//47
f 60//59 41//50 50//48
f 61//60 52//51 51//49
f 62//61 53//53 52//51
f 53//53 64//62 54//54
f 64//62 55//55 54//54
f 65//63 56//56 55//55
f 56//56 67//64 57//65
f 57//65 68//66 58//57
f 68//66 59//58 58//57
f 69//67 60//59 59//58
f 60//59 61//60 51//49
f 71//68 62//61 61//60
f 72//69 63//70 62//61
f 73//71 64//62 63//70
f 74//72 65//63 64//62
f 65//63 76//73 66//74
f 76//73 67//64 66//74
f 77//75 68//66 67//64
f 68//66 79//76 69//67
f 79//76 70//77 69//67
f 70//77 71//68 61//60
f 81//78 72//69 71//68
f 82//79 73//71 72//69
f 83//80 74//72 73//71
f 84//81 75//82 74//72
f 85//83 76//73 75//82
f 86//84 77//75 76//73
f 77//75 88//85 78//86
f 88//85 79//76 78//86
f 89//87 80//88 79//76
f 90//89 71//68 80//88
f 91//90 82//79 81//78
f 92//91 83//80 82//79
f 93//92 84//81 83//80
f 94//93 85//83 84//81
f 95//94 86//84 85//83
f 96//95 87//96 86//84
f 97//97 88//85 87//96
f 98//98 89//87 88//85
f 89//87 100//99 90//89
f 100//99 81//78 90//89
f 101//10 92//91 91//90
f 92//91 103//100 93//92
f 93//92 104//101 94//93
f 104//101 95//94 94//93
f 105//102 96//95 95//94
f 106//3 97//97 96//95
f 107//103 98//98 97//97
f 108//104 99//105 98//98
f 109//106 100//99 99//105
f 110//107 91//90 100//99
f 101//10 112//108 102//109
f 112//108 103//100 102//109
f 113//110 104//101 103//100
f 114//111 105//102 104//101
f 115//112 106//3 105//102
f 116//1 107//103 106//3
f 117//113 108//104 107//103
f 108//104 119//114 109//106
f 119//114 110//107 109//106
f 120//115 101//10 110//107
f 121//24 112//108 111//11
f 112//108 123//116 113//110
f 113//110 124//117 114//111
f 124//117 115//112 114//111
f 125//118 116//1 115//112
f 126//19 117//113 116//1
f 127//119 118//120 117//113
f 128//121 119//114 118//120
f 129//122 120//115 119//114
f 130//123 111//11 120//115
f 131//43 122//124 121//24
f 132//125 123//116 122//124
f 133//126 124//117 123//116
f 124//117 135//127 125//118
f 135//127 126//19 125//118
f 136//29 127//119 126//19
f 137//128 128//121 127//119
f 128//121 139//129 129//122
f 139//129 130//123 129//122
f 140//130 121//24 130//123
f 131//43 142//131 132//125
f 142//131 133//126 132//125
f 133//126 144//132 134//133
f 144//132 135//127 134//133
f 145//134 136//29 135//127
f 136//29 147//135 137//128
f 147//135 138//136 137//128
f 148//137 139//129 138//136
f 149//138 140//130 139//129
f 150//139 131//43 140//130
f 151//56 142//131 141//44
f 152//140 143//141 142//131
f 153//142 144//132 143//141
f 154//143 145//134 144//132
f 145//134 156//49 146//50
f 156//49 147//135 146//50
f 157//144 148//137 147//135
f 158//145 149//138 148//137
f 159//146 150//139 149//138
f 150//139 151//56 141//44
f 161//74 152//140 151//56
f 162//147 153//142 152//140
f 163//148 154//143 153//142
f 154//143 165//149 155//150
f 165//149 156//49 155//150
f 166//60 157//144 156//49
f 167//151 158//145 157//144
f 168//152 159//146 158//145
f 169//153 160//154 159//146
f 170//155 151//56 160//154
f 171//73 162//147 161//74
f 172//156 163//148 162//147
f 173//157 164//158 163//148
f 174//159 165//149 164//158
f 175//160 166//60 165//149
f 176//68 167//151 166//60
f 177//161 168//152 167//151
f 168//152 179//162 169//153
f 179//162 170//155 169//153
f 170//155 171//73 161//74
f 181//84 172//156 171//73
f 182//163 173//157 172//156
f 183//164 174//159 173//157
f 184//165 175//160 174//159
f 185//166 176//68 175//160
f 186//78 177//161 176//68
f 187//167 178//168 177//161
f 188//169 179//162 178//168
f 179//162 190//170 180//171
f 190//170 171//73 180//171
f 191//95 182//163 181//84
f 192//172 183//164 182//163
f 193//173 184//165 183//164
f 194//174 185//166 184//165
f 185//166 196//90 186//78
f 196//90 187//167 186//78
f 197//175 188//169 187//167
f 188//169 199//176 189//177
f 189//177 200//178 190//170
f 200//178 181//84 190//170
f 1//3 192//172 191//95
f 192//172 3//5 193//173
f 3//5 194//174 193//173
f 4//7 195//179 194//174
f 195//179 6//10 196//90
f 6//10 197//175 196//90
f 7//12 198//180 197//175
f 198//180 9//15 199//176
f 199//176 10//17 200//178
f 200//178 1//3 191//95
f 11//1 12//4 2//2
f 12//4 13//21 3//5
f 3//5 13//21 14//6
f 14//6 15//9 5//8
f 15//9 16//11 6//10
f 16//11 17//25 7//12
f 7//12 17//25 18//13
f 18//13 19//16 9//15
f 19//16 20//18 10//17
f 20//18 11//1 1//3
f 21//19 22//20 12//4
f 22//20 23//22 13//21
f 23//22 24//32 14//6
f 14//6 24//32 25//23
f 15//9 25//23 26//24
f 26//24 27//26 17//25
f 27//26 28//27 18//13
f 28//27 29//28 19//16
f 29//28 30//37 20//18
f 20//18 30//37 21//19
f 31//29 32//30 22//20
f 32//30 33//31 23//22
f 33//31 34//41 24//32
f 24//32 34//41 35//33
f 35//33 36//43 26//24
f 26//24 36//43 37//34
f 37//34 38//35 28//27
f 38//35 39//36 29//28
f 39//36 40//38 30//37
f 40//38 31//29 21//19
f 31//29 41//50 42//39
f 42//39 43//52 33//31
f 33//31 43//52 44//40
f 34//41 44//40 45//42
f 45//42 46//44 36//43
f 46//44 47//45 37//34
f 47//45 48//46 38//35
f 48//46 49//47 39//36
f 49//47 50//48 40//38
f 50//48 41//50 31//29
f 51//49 52//51 42//39
f 52//51 53//53 43//52
f 53//53 54//54 44//40
f 54//54 55//55 45//42
f 55//55 56//56 46//44
f 56//56 57//65 47//45
f 47//45 57//65 58//57
f 58//57 59//58 49//47
f 59//58 60//59 50//48
f 60//59 51//49 41//50
f 61//60 62//61 52//51
f 62//61 63//70 53//53
f 53//53 63//70 64//62
f 64//62 65//63 55//55
f 65//63 66//74 56//56
f 56//56 66//74 67//64
f 57//65 67//64 68//66
f 68//66 69//67 59//58
f 69//67 70//77 60//59
f 60//59 70//77 61//60
f 71//68 72//69 62//61
f 72//69 73//71 63//70
f 73//71 74//72 64//62
f 74//72 75//82 65//63
f 65//63 75//82 76//73
f 76//73 77//75 67//64
f 77//75 78//86 68//66
f 68//66 78//86 79//76
f 79//76 80//88 70//77
f 70//77 80//88 71//68
f 81//78 82//79 72//69
f 82//79 83//80 73//71
f 83//80 84//81 74//72
f 84//81 85//83 75//82
f 85//83 86//84 76//73
f 86//84 87//96 77//75
f 77//75 87//96 88//85
f 88//85 89//87 79//76
f 89//87 90//89 80//88
f 90//89 81//78 71//68
f 91//90 92//91 82//79
f 92//91 93//92 83//80
f 93//92 94//93 84//81
f 94//93 95//94 85//83
f 95//94 96//95 86//84
f 96//95 97//97 87//96
f 97//97 98//98 88//85
f 98//98 99//105 89//87
f 89//87 99//105 100//99
f 100//99 91//90 81//78
f 101//10 102//109 92//91
f 92//91 102//109 103//100
f 93//92 103//100 104//101
f 104//101 105//102 95//94
f 105//102 106//3 96//95
f 106//3 107//103 97//97
f 107//103 108//104 98//98
f 108//104 109//106 99//105
f 109//106 110//107 100//99
f 110//107 101//10 91//90
f 101//10 111//11 112//108
f 112//108 113//110 103//100
f 113//110 114//111 104//101
f 114//111 115//112 105//102
f 115//112 116//1 106//3
f 116//1 117//113 107//103
f 117//113 118//120 108//104
f 108//104 118//120 119//114
f 119//114 120//115 110//107
f 120//115 111//11 101//10
f 121//24 122//124 112//108
f 112//108 122//124 123//116
f 113//110 123//116 124//117
f 124//117 125//118 115//112
f 125//118 126//19 116//1
f 126//19 127//119 117//113
f 127//119 128//121 118//120
f 128//121 129//122 119//114
f 129//122 130//123 120//115
f 130//123 121//24 111//11
f 131//43 132//125 122//124
f 132//125 133//126 123//116
f 133//126 134//133 124//117
f 124//117 134//133 135//127
f 135//127 136//29 126//19
f 136//29 137//128 127//119
f 137//128 138//136 128//121
f 128//121 138//136 139//129
f 139//129 140//130 130//123
f 140//130 131//43 121//24
f 131//43 141//44 142//131
f 142//131 143//141 133//126
f 133//126 143//141 144//132
f 144//132 145//134 135//127
f 145//134 146//50 136//29
f 136//29 146//50 147//135
f 147//135 148//137 138//136
f 148//137 149//138 139//129
f 149//138 150//139 140//130
f 150//139 141//44 131//43
f 151//56 152//140 142//131
f 152//140 153//142 143//141
f 153//142 154//143 144//132
f 154//143 155//150 145//134
f 145//134 155//150 156//49
f 156//49 157//144 147//135
f 157//144 158//145 148//137
f 158//145 159//146 149//138
f 159//146 160//154 150//139
f 150//139 160//154 151//56
f 161//74 162//147 152//140
f 162//147 163//148 153//142
f 163//148 164//158 154//143
f 154//143 164//158 165//149
f 165//149 166//60 156//49
f 166//60 167//151 157//144
f 167//151 168//152 158//145
f 168//152 169//153 159//146
f 169//153 170//155 160//154
f 170//155 161//74 151//56
f 171//73 172//156 162//147
f 172//156 173//157 163//148
f 173//157 174//159 164//158
f 174//159 175//160 165//149
f 175//160 176//68 166//60
f 176//68 177//161 167//151
f 177//161 178//168 168//152
f 168//152 178//168 179//162
f 179//162 180//171 170//155
f 170//155 180//171 171//73
f 181//84 182//163 172//156
f 182//163 183//164 173//157
f 183//164 184//165 174//159
f 184//165 185//166 175//160
f 185//166 186//78 176//68
f 186//78 187//167 177//161
f 187//167 188//169 178//168
f 188//169 189//177 179//162
f 179//162 189//177 190//170
f 190//170 181//84 171//73
f 191//95 192//172 182//163
f 192//172 193//173 183//164
f 193//173 194//174 184//165
f 194//174 195//179 185//166
f 185//166 195//179 196//90
f 196//90 197//175 187//167
f 197//175 198//180 188//169
f 188//169 198//180 199//176
f 189//177 199//176 200//178
f 200//178 191//95 181//84
f 1//3 2//2 192//172
f 192//172 2//2 3//5
f 3//5 4//7 194//174
f 4//7 5//8 195//179
f 195//179 5//8 6//10
f 6//10 7//12 197//175
f 7//12 8//14 198//180
f 198//180 8//14 9//15
f 199//176 9//15 10//17
f 200//178 10//17 1//3
