# Blender 4.3.0
# www.blender.org
o Cube
v -0.750000 -0.750000 0.750000
v -0.750000 0.750000 0.750000
v -0.750000 -0.750000 -0.750000
v -0.750000 0.750000 -0.750000
v 0.750000 -0.750000 0.750000
v 0.750000 0.750000 0.750000
v 0.750000 -0.750000 -0.750000
v 0.750000 0.750000 -0.750000
vn -0.5773 -0.5774 0.5774
vn -0.5774 0.5773 0.5773
vn -0.5774 -0.5773 -0.5773
vn -0.5773 0.5774 -0.5774
vn 0.5774 -0.5773 0.5773
vn 0.5773 0.5774 0.5774
vn 0.5773 -0.5774 -0.5774
vn 0.5774 0.5773 -0.5773
s 1
f 2//2 3//3 1//1
f 4//4 7//7 3//3
f 8//8 5//5 7//7
f 6//6 1//1 5//5
f 7//7 1//1 3//3
f 4//4 6//6 8//8
f 2//2 4//4 3//3
f 4//4 8//8 7//7
f 8//8 6//6 5//5
f 6//6 2//2 1//1
f 7//7 5//5 1//1
f 4//4 2//2 6//6
